<svg width="79" height="42" viewBox="0 0 79 42" fill="none" xmlns="http://www.w3.org/2000/svg">
<path d="M16.8738 26.6856C16.7544 26.8562 16.635 27.0097 16.5156 27.1461C16.3962 27.2655 16.2938 27.3679 16.2086 27.4532L16.0295 27.6323C15.9953 27.6493 15.9527 27.6749 15.9015 27.709C15.8674 27.7431 15.8333 27.7773 15.7992 27.8114C15.7651 27.8796 15.731 27.9478 15.6969 28.0161C15.6798 28.0672 15.6542 28.1269 15.6201 28.1951C15.5348 28.3998 15.4239 28.5789 15.2875 28.7324C15.2704 28.7495 15.2534 28.7751 15.2363 28.8092C15.2363 28.8433 15.2278 28.8518 15.2107 28.8348C15.1937 28.8177 15.1851 28.7921 15.1851 28.758L15.0316 28.9883C15.0146 29.0224 14.989 29.0565 14.9549 29.0906C14.9549 29.0906 14.9463 29.0992 14.9293 29.1162C14.9293 29.1162 14.9208 29.1162 14.9037 29.1162C14.8867 29.1162 14.8781 29.1247 14.8781 29.1418C14.8781 29.1418 14.8696 29.1418 14.8525 29.1418C14.8355 29.3294 14.827 29.6194 14.827 30.0117C14.827 30.404 14.8184 30.8304 14.8014 31.291C14.8014 31.7515 14.7928 32.1779 14.7758 32.5702C14.7758 32.9625 14.7673 33.2525 14.7502 33.4401C14.7502 33.4572 14.7331 33.4743 14.699 33.4913C14.6649 33.5084 14.6479 33.5084 14.6479 33.4913C14.6308 33.3037 14.6137 33.0052 14.5967 32.5958C14.5967 32.1865 14.5967 31.743 14.5967 31.2654C14.5967 30.8049 14.5882 30.3699 14.5711 29.9605C14.5711 29.5682 14.5626 29.2697 14.5455 29.065C14.5114 29.0309 14.4773 29.0054 14.4432 28.9883C14.4432 28.9883 14.4261 28.9712 14.392 28.9371C14.392 28.9371 14.3835 28.9371 14.3664 28.9371C14.3664 28.9201 14.3664 28.903 14.3664 28.886C14.3494 28.886 14.3408 28.886 14.3408 28.886C14.3408 28.8689 14.3323 28.8604 14.3152 28.8604L14.2897 28.886C14.2726 28.9371 14.2641 28.9883 14.2641 29.0395C14.2641 29.0906 14.247 29.1589 14.2129 29.2441C14.1958 29.3124 14.1617 29.3721 14.1106 29.4232C14.0764 29.4744 14.0338 29.5341 13.9826 29.6023C13.9826 29.6194 13.9656 29.662 13.9315 29.7303C13.8974 29.7644 13.8718 29.7814 13.8547 29.7814C13.8377 29.7814 13.8291 29.7814 13.8291 29.7814C13.8291 29.7985 13.8291 29.807 13.8291 29.807C13.6756 30.0799 13.5477 30.387 13.4453 30.7281L13.2662 31.3166C13.2492 31.3677 13.2236 31.436 13.1895 31.5212C13.1724 31.6236 13.1639 31.6492 13.1639 31.598C13.1298 31.3251 13.1127 31.0522 13.1127 30.7793C13.1298 30.5064 13.1213 30.2334 13.0871 29.9605C13.0871 29.9776 13.0786 29.9861 13.0616 29.9861C13.0616 29.9861 13.0616 29.9946 13.0616 30.0117C13.0275 30.1311 12.9848 30.242 12.9336 30.3443C12.8825 30.4637 12.8313 30.5831 12.7801 30.7025C12.6948 30.8901 12.5925 31.0778 12.4731 31.2654C12.3537 31.453 12.2172 31.6236 12.0637 31.7771C12.0467 31.7942 12.0126 31.8197 11.9614 31.8539C11.9273 31.905 11.8846 31.9477 11.8335 31.9818C11.7652 32.05 11.697 32.1182 11.6288 32.1865C11.5776 32.2717 11.4838 32.2973 11.3473 32.2632C11.245 32.212 11.1512 32.1438 11.0659 32.0585C10.9977 32.0074 10.9209 31.9391 10.8356 31.8539C10.7674 31.7686 10.6992 31.6918 10.631 31.6236C10.4945 31.453 10.3666 31.2654 10.2472 31.0607C10.1448 30.8731 10.034 30.6769 9.91457 30.4722C9.88046 30.404 9.83781 30.3187 9.78664 30.2164C9.73547 30.1311 9.6843 30.0543 9.63313 29.9861L9.55637 29.9094C9.55637 29.8923 9.53932 29.8838 9.5052 29.8838C9.5052 29.8838 9.47109 29.8582 9.40286 29.807C9.36875 29.8241 9.35169 29.8582 9.35169 29.9094C9.35169 29.9776 9.33463 30.0288 9.30052 30.0629C9.26641 30.1311 9.24082 30.1652 9.22377 30.1652C9.20671 30.1482 9.18965 30.1226 9.17259 30.0885C9.17259 30.0543 9.16407 30.0288 9.14701 30.0117L9.07025 29.7559H9.04467C7.20252 29.7217 5.67593 29.4403 4.46489 28.9115C3.27091 28.3657 2.37543 27.692 1.77844 26.8903C1.65904 26.7368 1.5567 26.5833 1.47141 26.4298C1.38613 26.2933 1.3179 26.1569 1.26673 26.0204L1.16439 25.7645C1.11322 25.6281 1.07057 25.4916 1.03646 25.3552C1.00235 25.2017 0.968233 25.0567 0.934119 24.9202C0.917063 24.7838 0.891477 24.6473 0.857363 24.5109C0.840307 24.3573 0.865892 24.2124 0.934119 24.0759C0.934119 24.0589 0.934119 24.0503 0.934119 24.0503C0.951176 24.0333 0.959705 24.0247 0.959705 24.0247C0.993819 23.9565 1.06205 23.8883 1.16439 23.8201C1.23261 23.7859 1.30084 23.7689 1.36907 23.7689C1.4373 23.7518 1.497 23.7433 1.54817 23.7433C1.78696 23.7262 2.02576 23.7262 2.26456 23.7433C2.50335 23.7433 2.73362 23.7433 2.95536 23.7433H5.38597C5.47125 23.7433 5.58212 23.7433 5.71858 23.7433C5.87209 23.7262 6.00854 23.7177 6.12794 23.7177C6.23028 23.7177 6.32409 23.7262 6.40938 23.7433C6.51172 23.7433 6.59701 23.7518 6.66523 23.7689C6.80169 23.7859 6.91256 23.8286 6.99784 23.8968C7.10018 23.948 7.20252 24.0162 7.30487 24.1015L7.68865 24.3573C7.80804 24.4256 7.92744 24.4853 8.04684 24.5364C8.16624 24.5876 8.28564 24.6303 8.40503 24.6644C8.62677 24.7326 8.92527 24.7667 9.30052 24.7667C9.5052 24.7667 9.70136 24.7582 9.88898 24.7411C10.0766 24.7241 10.2472 24.6985 10.4007 24.6644L10.6565 24.5876C10.6907 24.5706 10.7162 24.562 10.7333 24.562C10.7674 24.562 10.793 24.5535 10.8101 24.5364C11.083 24.4 11.2194 24.238 11.2194 24.0503V24.0247C11.2194 23.9224 11.1768 23.8115 11.0915 23.6921L10.938 23.5386H10.9124C10.8442 23.5045 10.7504 23.5045 10.631 23.5386C10.5116 23.5557 10.4092 23.5727 10.3239 23.5898C10.2557 23.5898 10.179 23.5983 10.0937 23.6154C10.0254 23.6154 9.94868 23.6154 9.8634 23.6154C9.82928 23.6154 9.79517 23.6068 9.76106 23.5898C9.72694 23.5727 9.69283 23.5642 9.65872 23.5642C9.60755 23.5813 9.55637 23.5983 9.5052 23.6154C9.47109 23.6324 9.43698 23.6495 9.40286 23.6665C9.31758 23.7007 9.22377 23.7348 9.12142 23.7689C9.01908 23.803 8.91674 23.8456 8.8144 23.8968C8.66089 23.965 8.49885 24.0247 8.32828 24.0759C8.17477 24.11 8.01273 24.093 7.84216 24.0247C7.73982 23.9906 7.646 23.948 7.56072 23.8968C7.47543 23.8456 7.39015 23.7945 7.30487 23.7433C7.1343 23.658 6.97226 23.5642 6.81874 23.4619C6.68229 23.3595 6.54583 23.2487 6.40938 23.1293L5.82092 22.5408L5.61623 22.3873H5.43714C5.42008 22.4043 5.39449 22.4299 5.36038 22.464C5.34332 22.4811 5.31774 22.5067 5.28362 22.5408C5.2154 22.609 5.13864 22.6858 5.05336 22.7711C4.96807 22.8563 4.88279 22.9331 4.7975 23.0013C4.76339 23.0184 4.71222 23.044 4.64399 23.0781C4.59282 23.1122 4.54165 23.1207 4.49048 23.1037C4.42225 23.0696 4.36255 23.0184 4.31138 22.9502C4.26021 22.8819 4.21757 22.8137 4.18346 22.7455C4.13229 22.609 4.08964 22.464 4.05553 22.3105C4.03847 22.157 3.99583 22.0206 3.9276 21.9012C3.85937 21.85 3.78262 21.7903 3.69733 21.7221C3.62911 21.6538 3.56088 21.5856 3.49265 21.5174C3.4756 21.5003 3.45854 21.4833 3.44148 21.4662C3.44148 21.4492 3.42442 21.4321 3.39031 21.415C3.27091 21.2956 3.20268 21.2359 3.18563 21.2359C3.18563 21.2359 3.15151 21.2189 3.08329 21.1848C3.04917 21.1507 3.03212 21.1165 3.03212 21.0824C2.8786 20.946 2.73362 20.801 2.59717 20.6475C2.54599 20.5792 2.4863 20.5196 2.41807 20.4684C2.3669 20.4002 2.32426 20.3319 2.29014 20.2637C2.22191 20.1955 2.16222 20.1187 2.11104 20.0334C2.05987 19.9481 2.0087 19.8714 1.95753 19.8032C1.92342 19.7349 1.8893 19.6752 1.85519 19.6241C1.82108 19.5558 1.78696 19.4876 1.75285 19.4194C1.59934 19.1635 1.47994 18.8053 1.39466 18.3448C1.32643 17.8843 1.30084 17.4323 1.3179 16.9888C1.33496 16.5282 1.38613 16.17 1.47141 15.9142C1.50553 15.8119 1.53964 15.7095 1.57375 15.6072C1.60787 15.5048 1.64198 15.4025 1.67609 15.3001C1.71021 15.1978 1.74432 15.121 1.77844 15.0699C1.81255 14.9675 1.84666 14.8908 1.88078 14.8396C2.4266 13.7821 3.30503 12.9463 4.51607 12.3322C5.7271 11.7011 7.194 11.3685 8.91674 11.3344H9.12142C10.5371 11.3344 11.7652 11.5391 12.8057 11.9485C13.8632 12.3408 14.7331 12.8525 15.4154 13.4836C16.0977 14.0976 16.5838 14.7373 16.8738 15.4025C16.9079 15.5048 16.942 15.6072 16.9761 15.7095C17.0273 15.8118 17.0614 15.9142 17.0785 16.0165C17.1126 16.1189 17.1382 16.2297 17.1552 16.3491C17.1893 16.4685 17.1893 16.5879 17.1552 16.7073C17.1211 16.8608 17.0529 16.9802 16.9505 17.0655C16.8823 17.1338 16.8226 17.1764 16.7714 17.1935C16.7714 17.1935 16.7544 17.2105 16.7203 17.2446C16.7032 17.2446 16.6862 17.2361 16.6691 17.219C16.652 17.2361 16.635 17.2446 16.6179 17.2446C16.6009 17.2276 16.5753 17.2276 16.5412 17.2446C16.5071 17.2446 16.4644 17.2617 16.4132 17.2958C16.3791 17.3129 16.345 17.3299 16.3109 17.347C16.1915 17.3981 16.0721 17.4578 15.9527 17.5261C15.8504 17.5943 15.731 17.6369 15.5945 17.654C15.4581 17.654 15.3216 17.6369 15.1851 17.6028C15.0487 17.5517 14.9122 17.5261 14.7758 17.5261C14.6734 17.5261 14.5711 17.5517 14.4688 17.6028C14.3664 17.6369 14.2641 17.6455 14.1617 17.6284C14.0935 17.6114 14.0253 17.5858 13.9571 17.5517C13.8888 17.5005 13.8206 17.4578 13.7524 17.4237C13.7012 17.4067 13.65 17.3896 13.5989 17.3726C13.5477 17.3555 13.4965 17.347 13.4453 17.347L13.2407 17.3981C13.0701 17.4323 12.8995 17.4664 12.729 17.5005C12.5584 17.5346 12.3793 17.5602 12.1917 17.5772C12.1234 17.5943 12.0552 17.6199 11.987 17.654C11.9358 17.6881 11.8761 17.7137 11.8079 17.7308C11.7055 17.7649 11.5947 17.7904 11.4753 17.8075C11.3729 17.8246 11.2621 17.816 11.1427 17.7819C10.9892 17.7137 10.8612 17.6114 10.7589 17.4749C10.6736 17.3214 10.5798 17.1849 10.4774 17.0655C10.4433 17.0144 10.4007 16.9632 10.3495 16.912C10.2983 16.8608 10.2472 16.8097 10.196 16.7585C10.179 16.7756 10.1534 16.7841 10.1193 16.7841C9.82928 16.8694 9.5649 16.8353 9.32611 16.6818C9.27494 16.6476 9.22377 16.6135 9.17259 16.5794C9.12142 16.5282 9.06172 16.4941 8.9935 16.4771C8.9935 16.46 8.95938 16.4344 8.89116 16.4003C8.82293 16.4174 8.7547 16.443 8.68647 16.4771C8.61825 16.4941 8.55002 16.5197 8.48179 16.5538C8.46473 16.5538 8.43915 16.5624 8.40503 16.5794C8.38798 16.5794 8.36239 16.5794 8.32828 16.5794H8.17477C8.10654 16.5794 8.0639 16.5879 8.04684 16.605C8.04684 16.6221 8.02978 16.6476 7.99567 16.6818C7.99567 16.6988 7.98714 16.7073 7.97008 16.7073C7.97008 16.7073 7.97008 16.7159 7.97008 16.7329C7.93597 16.8011 7.91891 16.8523 7.91891 16.8864C7.90186 16.9205 7.89333 16.9717 7.89333 17.0399C7.89333 17.2787 8.02978 17.4578 8.30269 17.5772C8.33681 17.6114 8.40503 17.6455 8.50738 17.6796C8.66089 17.7478 8.82293 17.799 8.9935 17.8331C9.31758 17.9184 9.6843 17.9951 10.0937 18.0634L10.7333 18.1401C10.7674 18.1401 10.8015 18.1486 10.8356 18.1657C10.8868 18.1657 10.9209 18.1657 10.938 18.1657L11.4241 18.2425H11.5776C11.5947 18.2595 11.6117 18.268 11.6288 18.268C11.68 18.268 11.7311 18.2766 11.7823 18.2936C11.8505 18.2936 11.9188 18.3022 11.987 18.3192C14.6479 18.7968 16.3706 19.7008 17.1552 21.0313C17.1723 21.0313 17.1808 21.0398 17.1808 21.0568C17.2831 21.1762 17.3599 21.3383 17.4111 21.543C17.4281 21.5771 17.4452 21.6197 17.4622 21.6709C17.4793 21.705 17.4964 21.7391 17.5134 21.7732L17.6669 22.2338C17.6669 22.2508 17.6669 22.2764 17.6669 22.3105C17.684 22.3276 17.6925 22.3446 17.6925 22.3617C17.7437 22.5152 17.7693 22.6687 17.7693 22.8222C17.7863 22.9246 17.7948 23.0269 17.7948 23.1293C17.7948 23.2145 17.7948 23.2998 17.7948 23.3851V23.7177C17.7948 24.3318 17.6925 24.9202 17.4878 25.4831C17.3684 25.9095 17.2234 26.2336 17.0529 26.4553L16.8738 26.6856ZM48.5808 24.2294C48.5637 24.4512 48.5296 24.6729 48.4785 24.8946C48.4443 25.0993 48.3846 25.2955 48.2994 25.4831C48.2141 25.7731 48.1117 26.0204 47.9923 26.2251C47.8729 26.4639 47.7535 26.643 47.6341 26.7624L47.3271 27.1206C47.2759 27.1717 47.2248 27.2314 47.1736 27.2997C47.1224 27.3508 47.0713 27.402 47.0201 27.4532L46.7131 27.7346C46.696 27.7517 46.6704 27.7687 46.6363 27.7858C46.6022 27.8028 46.6022 27.8028 46.6363 27.7858C46.5851 27.9052 46.551 28.0246 46.534 28.144C46.5169 28.2463 46.4913 28.3487 46.4572 28.451C46.406 28.6557 46.3549 28.8604 46.3037 29.065C46.2696 29.2697 46.2099 29.4659 46.1246 29.6535C46.1075 29.7388 46.0649 29.8411 45.9967 29.9605C45.9455 30.097 45.8773 30.1823 45.792 30.2164C45.7238 30.2334 45.6641 30.2164 45.6129 30.1652C45.5788 30.1311 45.5447 30.097 45.5106 30.0629C45.4082 29.9435 45.3229 29.807 45.2547 29.6535C45.2035 29.5171 45.1353 29.3806 45.05 29.2441L44.9733 29.0395C44.9562 29.0224 44.9477 29.0054 44.9477 28.9883C44.9477 28.9712 44.9391 28.9542 44.9221 28.9371C44.8368 29.0565 44.7601 29.193 44.6918 29.3465C44.6236 29.5 44.5639 29.6535 44.5127 29.807L44.3592 30.2676C44.3422 30.3358 44.2995 30.4296 44.2313 30.549C44.1801 30.6855 44.1034 30.7707 44.001 30.8049C43.9498 30.8049 43.9157 30.7963 43.8987 30.7793C43.8134 30.7452 43.7537 30.6769 43.7196 30.5746C43.6855 30.5064 43.6684 30.4722 43.6684 30.4722C43.6172 30.387 43.5661 30.2931 43.5149 30.1908C43.4808 30.1055 43.4467 30.0202 43.4126 29.935C43.3784 29.8667 43.3358 29.7985 43.2846 29.7303C43.2505 29.6791 43.1908 29.6365 43.1055 29.6023C43.0885 29.7217 43.0799 29.8326 43.0799 29.935C43.0799 30.0543 43.0629 30.1737 43.0288 30.2931C43.0117 30.3102 42.9947 30.3017 42.9776 30.2676C42.9605 30.2334 42.9435 30.2079 42.9264 30.1908C42.9094 30.1567 42.8923 30.1311 42.8753 30.114C42.8582 30.097 42.8412 30.0799 42.8241 30.0629C42.807 30.0288 42.79 29.9946 42.7729 29.9605C42.7559 29.9264 42.7303 29.9008 42.6962 29.8838C42.6962 29.952 42.6706 30.0032 42.6194 30.0373C42.5682 30.0543 42.5427 30.0202 42.5427 29.935C42.5597 29.8497 42.5512 29.79 42.5171 29.7559C42.5 29.7217 42.483 29.6962 42.4659 29.6791C42.4488 29.6791 42.4318 29.6706 42.4147 29.6535L42.2612 29.5C42.0736 29.3124 41.9968 29.2271 42.0309 29.2441C42.0651 29.2612 42.1248 29.3209 42.21 29.4232C42.3124 29.5256 42.3465 29.6109 42.3124 29.6791V30.9584C42.3124 30.9754 42.3124 31.0522 42.3124 31.1886C42.3294 31.3421 42.3294 31.4615 42.3124 31.5468C42.2953 31.5468 42.2868 31.5639 42.2868 31.598C42.2697 31.6662 42.2356 31.7259 42.1845 31.7771C42.1674 31.7942 42.1503 31.8112 42.1333 31.8283C42.1162 31.8624 42.0906 31.888 42.0565 31.905L41.8519 32.0841C41.8348 32.1182 41.8177 32.1438 41.8007 32.1609C41.7836 32.195 41.758 32.2291 41.7239 32.2632C41.7069 32.2803 41.6898 32.2973 41.6728 32.3144C41.6557 32.3314 41.6386 32.357 41.6216 32.3911C41.6045 32.4082 41.5875 32.4253 41.5704 32.4423C41.5534 32.4594 41.5363 32.485 41.5192 32.5191L41.289 32.7493C41.2719 32.7664 41.2463 32.7835 41.2122 32.8005C41.1781 32.8176 41.1781 32.8176 41.2122 32.8005V32.8261C41.161 32.9967 41.1269 33.1672 41.1099 33.3378C41.0928 33.5254 41.0672 33.7131 41.0331 33.9007C40.982 34.1224 40.9308 34.3442 40.8796 34.5659C40.8455 34.8047 40.7943 35.0435 40.7261 35.2823C40.709 35.3505 40.692 35.4443 40.6749 35.5637C40.6579 35.7002 40.6408 35.7343 40.6238 35.6661C40.5726 35.6149 40.5299 35.5723 40.4958 35.5381C40.4788 35.504 40.4617 35.4784 40.4447 35.4614C40.4788 35.5126 40.5214 35.5893 40.5726 35.6916C40.6408 35.811 40.6749 35.9219 40.6749 36.0243C40.6749 36.1266 40.5896 36.1948 40.4191 36.2289C40.2314 36.2631 40.1206 36.1863 40.0865 35.9987C40.0524 35.8281 40.0524 35.5978 40.0865 35.3079C40.1376 35.0179 40.1888 34.7194 40.24 34.4124C40.3082 34.1224 40.3338 33.8836 40.3167 33.696C40.3167 33.696 40.2997 33.6875 40.2656 33.6704C40.2314 33.6534 40.1888 33.6278 40.1376 33.5937C40.0694 33.5425 40.0097 33.4743 39.9585 33.389C39.9074 33.3037 39.8562 33.2269 39.805 33.1587C39.7709 33.0905 39.7112 33.0137 39.6259 32.9284C39.5406 32.8431 39.498 32.809 39.498 32.8261C39.4639 32.9625 39.4468 33.1075 39.4468 33.261C39.4639 33.4146 39.4383 33.5595 39.3701 33.696C39.353 33.7472 39.336 33.7216 39.3189 33.6192C39.3018 33.5169 39.2763 33.4401 39.2421 33.389C39.2251 33.3378 39.1824 33.244 39.1142 33.1075C39.0631 32.9711 39.0119 32.8261 38.9607 32.6726C38.9095 32.5191 38.8328 32.3826 38.7304 32.2632L38.5513 32.1097C38.5172 32.0756 38.4661 32.0585 38.3978 32.0585L38.1932 31.9818C37.9544 31.8283 37.835 31.6236 37.835 31.3677L37.8094 31.1886C37.7923 31.001 37.7923 30.8219 37.8094 30.6513C37.8264 30.4808 37.835 30.3187 37.835 30.1652V29.6023L37.6559 29.5768C37.6047 29.5938 37.562 29.6279 37.5279 29.6791C37.4938 29.7303 37.4597 29.7729 37.4256 29.807C37.3915 29.8753 37.3574 29.9179 37.3232 29.935C37.3062 29.952 37.2977 29.9861 37.2977 30.0373C37.2635 30.0714 37.238 30.0799 37.2209 30.0629C37.2039 30.0629 37.1953 30.0543 37.1953 30.0373C37.1953 30.0202 37.1953 29.9691 37.1953 29.8838C37.1783 29.8497 37.1697 29.8156 37.1697 29.7814C37.1868 29.7473 37.1868 29.7132 37.1697 29.6791C37.1697 29.662 37.1612 29.645 37.1442 29.6279C37.093 29.6962 37.0845 29.7985 37.1186 29.935C37.1186 29.9861 37.1186 30.0288 37.1186 30.0629C37.1356 30.114 37.1442 30.1567 37.1442 30.1908C37.1442 30.2249 37.1356 30.2505 37.1186 30.2676C37.1186 30.3017 37.11 30.3187 37.093 30.3187C37.0759 30.3358 37.0589 30.3443 37.0418 30.3443C37.0077 30.3443 36.9821 30.3358 36.9651 30.3187C36.9651 30.3187 36.9651 30.3102 36.9651 30.2931C36.9651 30.2931 36.9565 30.2931 36.9395 30.2931C36.9565 30.3102 36.9651 30.3528 36.9651 30.4211C36.9651 30.5405 36.9395 30.6087 36.8883 30.6258C36.8883 30.6428 36.8712 30.6513 36.8371 30.6513H36.7348C36.7518 30.8049 36.7348 30.9242 36.6836 31.0095C36.6495 31.0436 36.5983 31.0607 36.5301 31.0607C36.4278 31.0778 36.3595 31.0266 36.3254 30.9072C36.3084 30.8049 36.3169 30.6599 36.351 30.4722C36.3851 30.3017 36.4107 30.1396 36.4278 29.9861V29.7047C36.4278 29.7047 36.4192 29.7047 36.4022 29.7047C36.4022 29.7047 36.3936 29.6962 36.3766 29.6791C36.3595 29.6962 36.3084 29.7047 36.2231 29.7047C36.2231 29.7047 36.2146 29.7047 36.1975 29.7047C36.1975 29.7047 36.189 29.6962 36.1719 29.6791C36.1549 29.6962 36.1378 29.7047 36.1207 29.7047C36.1207 29.7047 36.1207 29.7388 36.1207 29.807C36.1207 29.8411 36.1207 29.8753 36.1207 29.9094C36.1378 29.9605 36.1463 30.0032 36.1463 30.0373C36.1804 30.2079 36.2146 30.3699 36.2487 30.5234C36.2828 30.694 36.3084 30.8646 36.3254 31.0351C36.3254 31.0351 36.3254 31.0948 36.3254 31.2142C36.3425 31.3336 36.3425 31.4104 36.3254 31.4445C36.2913 31.5468 36.2316 31.6151 36.1463 31.6492C36.1122 31.8197 36.0952 31.9988 36.0952 32.1865C36.0952 32.3741 36.0781 32.5617 36.044 32.7493C36.0269 32.7664 36.0013 32.7749 35.9672 32.7749C35.9331 32.7749 35.9161 32.7664 35.9161 32.7493C35.8819 32.5447 35.8649 32.34 35.8649 32.1353C35.8649 31.9477 35.8564 31.76 35.8393 31.5724C35.7881 31.5212 35.754 31.453 35.737 31.3677C35.7199 31.3336 35.7114 31.291 35.7114 31.2398C35.7284 31.1886 35.737 31.1375 35.737 31.0863C35.754 30.9669 35.7796 30.8304 35.8137 30.6769C35.8478 30.5405 35.8734 30.404 35.8905 30.2676L35.9161 30.0117C35.9161 30.0117 35.9161 30.0032 35.9161 29.9861C35.9161 29.9691 35.9246 29.952 35.9416 29.935V29.6791H35.8393C35.7881 29.7985 35.7455 29.9179 35.7114 30.0373C35.6943 30.1567 35.6687 30.2846 35.6346 30.4211C35.6176 30.5064 35.6005 30.6258 35.5834 30.7793C35.5834 30.9498 35.5664 31.001 35.5323 30.9328C35.464 30.7622 35.4385 30.5916 35.4555 30.4211C35.4726 30.2505 35.464 30.0799 35.4299 29.9094C35.4299 29.8753 35.4129 29.8497 35.3788 29.8326C35.3617 29.8156 35.3532 29.8241 35.3532 29.8582C35.3361 29.9435 35.3276 30.0714 35.3276 30.242C35.3447 30.4125 35.3532 30.549 35.3532 30.6513C35.3532 30.7707 35.3191 30.7963 35.2508 30.7281C35.0632 30.5405 34.9779 30.4211 34.995 30.3699C35.012 30.3187 35.0632 30.2931 35.1485 30.2931C35.2508 30.3102 35.3105 30.2931 35.3276 30.242C35.3447 30.1908 35.2594 30.0714 35.0717 29.8838C35.0206 29.8497 34.995 29.79 34.995 29.7047C35.012 29.6365 35.0035 29.5682 34.9694 29.5C34.9523 29.4659 34.9353 29.4232 34.9182 29.3721C34.9182 29.3209 34.9012 29.2697 34.8671 29.2186C34.8159 29.1844 34.7732 29.1589 34.7391 29.1418C34.7221 29.1077 34.6794 29.0565 34.6112 28.9883L34.5344 28.9115C34.5344 28.8945 34.5259 28.886 34.5089 28.886V29.2697C34.5089 29.3209 34.5089 29.3721 34.5089 29.4232C34.5259 29.4574 34.5344 29.4915 34.5344 29.5256C34.5344 29.5597 34.5344 29.5938 34.5344 29.6279C34.5515 29.662 34.56 29.6962 34.56 29.7303C34.56 29.7473 34.56 29.7814 34.56 29.8326C34.5771 29.9008 34.5686 29.952 34.5344 29.9861C34.5344 30.0202 34.5089 30.0288 34.4577 30.0117C34.4577 30.0117 34.4321 29.9861 34.3809 29.935C34.3468 29.9008 34.3298 29.8667 34.3298 29.8326C34.3127 29.8156 34.3042 29.7985 34.3042 29.7814C34.2871 29.6962 34.2786 29.6109 34.2786 29.5256C34.2786 29.4403 34.2871 29.3635 34.3042 29.2953C34.3212 29.193 34.3298 29.0906 34.3298 28.9883C34.3468 28.886 34.3468 28.7921 34.3298 28.7069C34.3298 28.6898 34.3212 28.6813 34.3042 28.6813C34.3042 28.6813 34.3042 28.6727 34.3042 28.6557C34.3042 28.6386 34.2871 28.6301 34.253 28.6301C34.236 28.6642 34.2274 28.7239 34.2274 28.8092C34.2274 28.8774 34.2274 28.9457 34.2274 29.0139C34.2445 29.065 34.253 29.1162 34.253 29.1674C34.253 29.2356 34.2445 29.2783 34.2274 29.2953C34.2274 29.3465 34.2018 29.3465 34.1507 29.2953C34.1336 29.2953 34.091 29.2612 34.0227 29.193C33.9545 29.1077 33.9204 29.0565 33.9204 29.0395C33.9033 29.0224 33.9289 29.0224 33.9972 29.0395C33.9801 29.0395 34.0057 29.065 34.0739 29.1162C34.1592 29.1503 34.2018 29.1674 34.2018 29.1674C34.2018 29.1333 34.2018 29.1162 34.2018 29.1162C34.2018 29.1162 34.1763 29.0992 34.1251 29.065C34.091 29.0139 34.0739 28.9798 34.0739 28.9627C33.8692 28.8092 33.7584 28.6301 33.7413 28.4254C33.7242 28.4254 33.7072 28.4084 33.6901 28.3742C33.6901 28.3231 33.6816 28.289 33.6645 28.2719C33.6475 28.2378 33.6304 28.2037 33.6134 28.1696C33.5963 28.1354 33.5793 28.1099 33.5622 28.0928C33.5451 28.0587 33.5366 28.0246 33.5366 27.9905C33.5366 27.9393 33.5196 27.8967 33.4854 27.8625C33.4513 27.8284 33.4087 27.7943 33.3575 27.7602C33.3234 27.7261 33.2893 27.692 33.2552 27.6579C33.2381 27.6579 33.2125 27.6408 33.1784 27.6067C33.1102 27.5385 33.0505 27.4788 32.9993 27.4276C32.9482 27.3594 32.897 27.2911 32.8458 27.2229C32.2488 26.5065 31.8821 25.739 31.7456 24.9202V24.8691C31.7286 24.8179 31.7115 24.7667 31.6945 24.7155C31.6945 24.6644 31.6945 24.6047 31.6945 24.5364V24.4085C31.6945 24.3062 31.703 24.2294 31.7201 24.1783V24.1271C31.7542 24.0418 31.8053 23.965 31.8736 23.8968C31.9247 23.8456 31.9674 23.8115 32.0015 23.7945C32.0527 23.7774 32.0953 23.7689 32.1294 23.7689C32.1635 23.7518 32.2232 23.7433 32.3085 23.7433H36.1975C36.4022 23.7433 36.6154 23.7348 36.8371 23.7177C37.0759 23.7007 37.2891 23.7177 37.4768 23.7689C37.6814 23.8201 37.8605 23.9053 38.0141 24.0247C38.1335 24.093 38.2443 24.1697 38.3467 24.255C38.449 24.3232 38.5599 24.3915 38.6793 24.4597C38.8328 24.545 38.9692 24.6047 39.0886 24.6388C39.2251 24.6558 39.353 24.6814 39.4724 24.7155C39.5406 24.7326 39.6003 24.7411 39.6515 24.7411C39.7027 24.7411 39.7624 24.7497 39.8306 24.7667H40.112C40.2485 24.7667 40.3764 24.7667 40.4958 24.7667C40.6323 24.7497 40.7602 24.7326 40.8796 24.7155C40.9137 24.7155 40.9478 24.7155 40.982 24.7155C41.0161 24.6985 41.0502 24.69 41.0843 24.69C41.1184 24.6729 41.1525 24.6644 41.1866 24.6644C41.2207 24.6644 41.2463 24.6558 41.2634 24.6388C41.2975 24.6388 41.3231 24.6388 41.3401 24.6388C41.3743 24.6217 41.4169 24.6047 41.4681 24.5876C41.5022 24.5706 41.5278 24.562 41.5448 24.562C41.5789 24.562 41.6045 24.5535 41.6216 24.5364C41.7751 24.4682 41.886 24.3829 41.9542 24.2806C41.9542 24.2635 41.9542 24.255 41.9542 24.255C41.9712 24.255 41.9798 24.2465 41.9798 24.2294C42.0139 24.1612 42.0309 24.1015 42.0309 24.0503C42.0309 23.9309 42.0054 23.8371 41.9542 23.7689C41.9201 23.7007 41.886 23.658 41.8519 23.641C41.7836 23.5727 41.6898 23.513 41.5704 23.4619C41.451 23.4107 41.3487 23.3766 41.2634 23.3595C41.2463 23.3595 41.2293 23.351 41.2122 23.3339C40.9393 23.2657 40.6493 23.2316 40.3423 23.2316C40.0353 23.2145 39.7368 23.2145 39.4468 23.2316C39.2763 23.2316 39.0972 23.2487 38.9095 23.2828C38.739 23.2998 38.5599 23.2828 38.3722 23.2316C38.3552 23.2487 38.3381 23.2572 38.3211 23.2572C38.1505 23.3425 37.9799 23.4363 37.8094 23.5386C37.6388 23.641 37.4426 23.6751 37.2209 23.641C37.1015 23.6239 36.9821 23.5898 36.8627 23.5386C36.7433 23.4704 36.6324 23.4022 36.5301 23.3339C36.3425 23.1975 36.1634 23.061 35.9928 22.9246C35.8222 22.7711 35.6517 22.6261 35.4811 22.4896C35.3105 22.3532 35.14 22.2167 34.9694 22.0803C34.7988 21.9267 34.6368 21.7818 34.4833 21.6453C34.398 21.5771 34.3127 21.5003 34.2274 21.415C34.1421 21.3127 34.0569 21.2359 33.9716 21.1848C33.9545 21.1677 33.9375 21.1677 33.9204 21.1848C33.9033 21.1848 33.8948 21.1762 33.8948 21.1592C33.8778 21.1421 33.8607 21.1251 33.8436 21.108C33.8436 21.0739 33.8351 21.0483 33.8181 21.0313C33.8181 21.0313 33.7839 20.9971 33.7157 20.9289C33.6475 20.8607 33.6048 20.8266 33.5878 20.8266L33.5366 20.7754C33.4684 20.7072 33.4002 20.6389 33.3319 20.5707C33.2637 20.4854 33.204 20.4087 33.1528 20.3405C32.9823 20.1699 32.8458 19.9652 32.7435 19.7264C32.5729 19.4364 32.445 19.1294 32.3597 18.8053C32.2915 18.72 32.2488 18.6262 32.2318 18.5239C32.1806 18.2851 32.155 18.0292 32.155 17.7563C32.138 17.6711 32.1294 17.5858 32.1294 17.5005C32.1294 17.3981 32.1294 17.3043 32.1294 17.219C32.1294 16.1786 32.4023 15.2404 32.9482 14.4047C33.0334 14.2341 33.1273 14.0976 33.2296 13.9953C33.3319 13.8588 33.4258 13.748 33.511 13.6627C33.5963 13.5774 33.6901 13.4921 33.7925 13.4068C33.8948 13.3045 33.9972 13.2107 34.0995 13.1254C34.2189 13.023 34.3468 12.9292 34.4833 12.844C34.6197 12.7416 34.7562 12.6478 34.8926 12.5625C34.9097 12.5455 34.9268 12.5369 34.9438 12.5369C34.995 12.5028 35.0462 12.4687 35.0973 12.4346C35.1656 12.4005 35.2338 12.3664 35.302 12.3322C35.3702 12.2981 35.4299 12.264 35.4811 12.2299C35.5493 12.1958 35.6176 12.1702 35.6858 12.1531C35.8222 12.0849 35.9672 12.0252 36.1207 11.9741C36.2743 11.9229 36.4192 11.8717 36.5557 11.8205C36.6751 11.7864 36.786 11.7523 36.8883 11.7182C37.0077 11.6841 37.1271 11.6585 37.2465 11.6414C37.4341 11.5732 37.5791 11.5391 37.6814 11.5391H37.8861C38.1761 11.5391 38.3296 11.5476 38.3467 11.5647C38.3808 11.5817 38.3467 11.5988 38.2443 11.6159C38.142 11.6159 38.0396 11.6073 37.9373 11.5903C37.835 11.5562 37.8008 11.4965 37.835 11.4112V9.72254C37.835 9.53492 37.9032 9.37288 38.0396 9.23642C38.1761 9.09997 38.3381 9.03174 38.5258 9.03174H40.7261C40.8967 9.03174 41.0672 9.02321 41.2378 9.00615C41.4084 8.9891 41.5789 8.99763 41.7495 9.03174C41.886 9.0488 41.9883 9.09997 42.0565 9.18525C42.1418 9.25348 42.2186 9.36435 42.2868 9.51786C42.3209 9.58609 42.3294 9.67137 42.3124 9.77371C42.3124 9.859 42.3124 9.94428 42.3124 10.0296V11.5903L42.6962 11.667C42.7132 11.6841 42.7388 11.6926 42.7729 11.6926C42.9776 11.7438 43.1908 11.8035 43.4126 11.8717C43.6514 11.9399 43.8646 12.0252 44.0522 12.1276C44.0692 12.1276 44.0778 12.1361 44.0778 12.1531C44.9477 12.5284 45.6811 12.9889 46.2781 13.5348C46.8751 14.0806 47.3101 14.6435 47.583 15.2234C47.583 15.2234 47.583 15.2319 47.583 15.249C47.6 15.249 47.6085 15.2575 47.6085 15.2746C47.6427 15.3428 47.6597 15.3854 47.6597 15.4025L47.7365 15.556C47.8559 15.846 47.9241 16.1018 47.9412 16.3236C47.9412 16.2894 47.9412 16.315 47.9412 16.4003C47.9582 16.4856 47.9667 16.5624 47.9667 16.6306C47.9667 16.7841 47.9156 16.912 47.8132 17.0144C47.745 17.0996 47.6768 17.1508 47.6085 17.1679C47.5574 17.1849 47.5147 17.202 47.4806 17.219C47.4295 17.2532 47.3612 17.2532 47.2759 17.219C47.1736 17.2361 47.0286 17.2532 46.841 17.2702C46.6704 17.2873 46.534 17.3043 46.4316 17.3214C46.4146 17.3384 46.3975 17.347 46.3805 17.347C45.9881 17.4493 45.5617 17.4578 45.1012 17.3726C44.9988 17.3384 44.888 17.3043 44.7686 17.2702C44.6492 17.2361 44.5213 17.2105 44.3848 17.1935C44.3166 17.1935 44.2398 17.1935 44.1545 17.1935C44.0863 17.1935 44.0181 17.202 43.9498 17.219C43.8475 17.2361 43.7452 17.2617 43.6428 17.2958C43.5405 17.3129 43.4381 17.3299 43.3358 17.347C42.8753 17.3981 42.4233 17.3555 41.9798 17.219C41.8604 17.1849 41.758 17.1423 41.6728 17.0911C41.6045 17.0399 41.5534 17.0058 41.5192 16.9888C41.451 16.9547 41.3913 16.912 41.3401 16.8608C41.289 16.8097 41.2293 16.7585 41.161 16.7073C41.0416 16.7415 40.9649 16.75 40.9308 16.7329C40.8455 16.7159 40.7602 16.6903 40.6749 16.6562C40.5896 16.605 40.5044 16.5709 40.4191 16.5538C40.3508 16.5368 40.2826 16.5197 40.2144 16.5027C40.1632 16.4856 40.1035 16.4685 40.0353 16.4515C40.0012 16.4174 39.9671 16.4003 39.933 16.4003C39.8988 16.4003 39.8647 16.4174 39.8306 16.4515C39.7453 16.4856 39.6345 16.5197 39.498 16.5538C39.4298 16.5709 39.3615 16.5794 39.2933 16.5794C39.2421 16.5794 39.1739 16.5794 39.0886 16.5794H38.9351C38.901 16.6135 38.8754 16.6306 38.8584 16.6306C38.8243 16.6647 38.7901 16.7159 38.756 16.7841C38.739 16.8353 38.7219 16.8779 38.7049 16.912C38.7049 16.9461 38.7049 17.0058 38.7049 17.0911C38.7219 17.1935 38.756 17.2787 38.8072 17.347C38.8754 17.4152 38.9437 17.4834 39.0119 17.5517C39.1142 17.6028 39.2166 17.6455 39.3189 17.6796C39.4383 17.7137 39.5321 17.7478 39.6003 17.7819C39.6174 17.7819 39.6259 17.7904 39.6259 17.8075C39.6259 17.8075 39.6345 17.8075 39.6515 17.8075C39.8391 17.8587 40.0524 17.9098 40.2911 17.961C40.5299 17.9951 40.8114 18.0378 41.1355 18.0889C41.1355 18.0889 41.1866 18.0975 41.289 18.1145C41.3913 18.1145 41.4766 18.1231 41.5448 18.1401C41.596 18.1401 41.6472 18.1486 41.6983 18.1657C41.7495 18.1657 41.7922 18.1657 41.8263 18.1657C41.9627 18.1828 42.0906 18.1998 42.21 18.2169C42.3465 18.2339 42.4744 18.2595 42.5938 18.2936C44.1119 18.5495 45.3144 18.9162 46.2014 19.3938C47.0883 19.8714 47.7194 20.5025 48.0947 21.2871C48.1458 21.3383 48.18 21.398 48.197 21.4662C48.2311 21.5344 48.2567 21.5941 48.2738 21.6453C48.342 21.7988 48.3932 21.9609 48.4273 22.1314C48.4785 22.2849 48.5126 22.447 48.5296 22.6175C48.5808 22.8222 48.6064 23.1207 48.6064 23.513V23.9992C48.6064 24.0333 48.5978 24.0759 48.5808 24.1271C48.5808 24.1612 48.5808 24.1953 48.5808 24.2294ZM36.6836 30.242C36.6836 30.2249 36.6836 30.1993 36.6836 30.1652C36.7007 30.1482 36.7092 30.1311 36.7092 30.114C36.7092 30.0799 36.7092 30.0373 36.7092 29.9861C36.7263 29.952 36.7348 29.9179 36.7348 29.8838C36.7348 29.8667 36.7348 29.8326 36.7348 29.7814C36.7348 29.7303 36.7263 29.6876 36.7092 29.6535C36.7092 29.6535 36.7007 29.6535 36.6836 29.6535C36.6666 29.6535 36.6495 29.662 36.6324 29.6791C36.6154 29.7473 36.6069 29.807 36.6069 29.8582C36.6239 29.9264 36.641 30.0032 36.658 30.0885C36.658 30.1055 36.658 30.1226 36.658 30.1396C36.6751 30.1737 36.6836 30.2079 36.6836 30.242ZM36.8883 29.8582C36.8883 29.9094 36.8883 29.9605 36.8883 30.0117C36.9054 30.0629 36.9139 30.114 36.9139 30.1652C36.9139 30.114 36.9139 30.0543 36.9139 29.9861C36.9309 29.935 36.9395 29.9008 36.9395 29.8838L36.9651 29.6791L36.9395 29.6535C36.9054 29.6876 36.8883 29.7217 36.8883 29.7559C36.8883 29.79 36.8883 29.8241 36.8883 29.8582ZM77.6953 16.3747C77.6782 16.46 77.6356 16.5368 77.5674 16.605C77.5674 16.6221 77.5588 16.6306 77.5418 16.6306C77.5247 16.6476 77.5077 16.6647 77.4906 16.6818C77.4736 16.6988 77.4565 16.7159 77.4394 16.7329C77.4394 16.7329 77.4309 16.7415 77.4139 16.7585C77.4139 16.7585 77.4053 16.7585 77.3883 16.7585C77.3883 16.7585 77.3797 16.767 77.3627 16.7841C77.3627 16.7841 77.3542 16.7841 77.3371 16.7841C77.3371 16.8011 77.3286 16.8097 77.3115 16.8097C77.3115 16.8097 77.3115 16.8182 77.3115 16.8353C77.2945 16.8523 77.2859 16.8779 77.2859 16.912C77.2859 16.9461 77.2689 16.9802 77.2348 17.0144L77.158 17.1935C77.1409 17.2105 77.1324 17.2361 77.1324 17.2702C77.1324 17.3043 77.1239 17.3384 77.1068 17.3726C77.0727 17.4237 77.0471 17.4408 77.0301 17.4237C77.013 17.4237 77.0045 17.4237 77.0045 17.4237C77.0045 17.4067 77.0045 17.3981 77.0045 17.3981C76.9874 17.3811 76.9789 17.3555 76.9789 17.3214C76.9618 17.3043 76.9533 17.2702 76.9533 17.219C76.9704 17.1679 76.9704 17.1252 76.9533 17.0911C76.9533 17.057 76.9448 17.0314 76.9277 17.0144C76.9107 16.9802 76.8766 16.9888 76.8254 17.0399C76.7913 17.0741 76.7572 17.1423 76.7231 17.2446C76.706 17.2617 76.6889 17.3043 76.6719 17.3726C76.6719 17.4237 76.6548 17.4493 76.6207 17.4493C76.5866 17.4493 76.5695 17.4152 76.5695 17.347C76.5695 17.2787 76.5525 17.2361 76.5184 17.219C76.5013 17.219 76.4672 17.2446 76.416 17.2958L76.0067 17.6028C75.7508 17.7734 75.4779 17.9866 75.1879 18.2425C74.915 18.4983 74.608 18.6177 74.2669 18.6007C74.0963 18.6007 73.9343 18.541 73.7807 18.4216C73.6443 18.2851 73.5078 18.1742 73.3714 18.0889C73.2349 18.0037 73.0814 17.9525 72.9108 17.9354C72.7403 17.9184 72.5868 17.8757 72.4503 17.8075C72.348 17.7734 72.2456 17.7307 72.1433 17.6796C72.058 17.6114 71.9727 17.5431 71.8874 17.4749C71.7851 17.4067 71.6742 17.347 71.5548 17.2958C71.4525 17.2446 71.3501 17.1849 71.2478 17.1167C71.1796 17.0826 71.1113 17.0485 71.0431 17.0144C70.9749 16.9632 70.8981 16.9291 70.8128 16.912C70.7276 16.895 70.6337 16.895 70.5314 16.912C70.4291 16.912 70.3267 16.912 70.2244 16.912C70.1903 16.912 70.1476 16.912 70.0965 16.912C70.0623 16.895 70.0197 16.8864 69.9685 16.8864C70.2244 16.8864 70.2926 16.8523 70.1732 16.7841C70.0709 16.6988 69.9174 16.7585 69.7127 16.9632V18.3448L69.815 18.7542H75.495C75.6996 18.7542 75.9384 18.7456 76.2113 18.7286C76.4843 18.6945 76.7145 18.7371 76.9021 18.8565C76.9704 18.9077 77.0301 18.9674 77.0812 19.0356C77.1154 19.0868 77.1409 19.1379 77.158 19.1891C77.1751 19.2403 77.1921 19.2915 77.2092 19.3426C77.2433 19.4961 77.2518 19.6582 77.2348 19.8287C77.2177 19.9993 77.2092 20.1528 77.2092 20.2893V22.3617C77.2092 22.5323 77.2177 22.7114 77.2348 22.899C77.2518 23.0696 77.2433 23.2487 77.2092 23.4363C77.1751 23.5386 77.1409 23.6154 77.1068 23.6665C77.0557 23.7689 76.9618 23.8627 76.8254 23.948C76.8083 24.0674 76.7913 24.1953 76.7742 24.3318C76.7742 24.4512 76.7572 24.5791 76.7231 24.7155C76.706 24.8349 76.706 25.014 76.7231 25.2528C76.7401 25.4916 76.706 25.5599 76.6207 25.4575C76.5525 25.3552 76.5184 25.2017 76.5184 24.997C76.5184 24.7923 76.5184 24.6217 76.5184 24.4853C76.5354 24.3318 76.5354 24.3147 76.5184 24.4341C76.4501 24.8094 76.4246 25.2017 76.4416 25.611C76.4587 26.0204 76.4501 26.4212 76.416 26.8135C76.399 26.9329 76.3819 27.1035 76.3649 27.3252C76.3478 27.5299 76.3307 27.5811 76.3137 27.4788C76.2796 27.0865 76.2625 26.66 76.2625 26.1995C76.2625 25.7219 76.2455 25.2955 76.2113 24.9202C76.2113 24.8861 76.2028 24.8946 76.1858 24.9458C76.1687 24.997 76.1431 25.0396 76.109 25.0737C76.0408 25.1761 75.9811 25.2443 75.9299 25.2784C75.9129 25.2955 75.8873 25.304 75.8532 25.304C75.8361 25.304 75.8276 25.3125 75.8276 25.3296C75.8105 25.5854 75.7935 25.9692 75.7764 26.4809C75.7764 26.9756 75.7764 27.4788 75.7764 27.9905C75.7764 28.5022 75.7593 28.886 75.7252 29.1418C75.7252 29.1759 75.6911 29.1589 75.6229 29.0906C75.6058 29.0736 75.5802 29.065 75.5461 29.065C75.512 29.048 75.495 29.0309 75.495 29.0139C75.4779 28.758 75.4608 28.3828 75.4438 27.8881C75.4438 27.3935 75.4438 26.8988 75.4438 26.4042C75.4438 25.9095 75.4267 25.5343 75.3926 25.2784C75.3926 25.2784 75.367 25.2528 75.3159 25.2017C75.2817 25.1676 75.2306 25.1079 75.1623 25.0226C75.1453 25.2443 75.1368 25.466 75.1368 25.6878C75.1368 25.8925 75.1197 26.0972 75.0856 26.3018C75.0856 26.353 75.0515 26.4127 74.9833 26.4809C74.8639 26.6515 74.77 26.8221 74.7018 26.9926L74.2924 27.709C74.2583 27.7602 74.2242 27.8114 74.1901 27.8625C74.156 27.9137 74.1219 27.9649 74.0878 28.0161C74.0707 28.0331 74.0451 28.0672 74.011 28.1184C73.994 28.1696 73.9854 28.1781 73.9854 28.144C73.9684 27.8881 73.9513 27.5555 73.9343 27.1461C73.9343 26.7197 73.9257 26.3018 73.9087 25.8925C73.9087 25.466 73.9001 25.1249 73.8831 24.8691C73.8831 24.8349 73.866 24.8264 73.8319 24.8435C73.8149 24.8605 73.7978 24.8776 73.7807 24.8946C73.7125 24.8946 73.6443 24.9117 73.5761 24.9458C73.4737 24.997 73.4311 25.014 73.4481 24.997C73.4822 24.9629 73.4567 24.9799 73.3714 25.0482C73.3373 25.0823 73.2946 25.1249 73.2434 25.1761C73.1923 25.2102 73.1411 25.2443 73.0899 25.2784C73.0558 25.4831 73.0302 25.6878 73.0132 25.8925C73.0132 26.0972 72.9961 26.3104 72.962 26.5321C72.945 26.6174 72.9279 26.7624 72.9108 26.9671C72.8938 27.1717 72.8767 27.2229 72.8597 27.1206C72.7914 26.8477 72.7659 26.5833 72.7829 26.3274C72.8 26.0545 72.7914 25.7816 72.7573 25.5087C72.7403 25.3211 72.6976 25.1931 72.6294 25.1249V25.0482L72.5526 25.0737C72.5185 25.0567 72.4503 25.0482 72.348 25.0482C72.3309 25.0311 72.3053 25.014 72.2712 24.997C72.2541 24.9799 72.2456 24.9885 72.2456 25.0226C72.2286 25.2102 72.22 25.4831 72.22 25.8413C72.22 26.1995 72.2115 26.5918 72.1944 27.0182C72.1944 27.4276 72.1859 27.8114 72.1689 28.1696C72.1689 28.5278 72.1603 28.8007 72.1433 28.9883C72.1433 29.0054 72.1348 28.9968 72.1177 28.9627C72.1006 28.9115 72.0751 28.8774 72.0409 28.8604C71.9898 28.7751 71.9386 28.6983 71.8874 28.6301C71.8363 28.5448 71.7851 28.4595 71.7339 28.3742C71.461 27.9137 71.2307 27.4276 71.0431 26.9159C70.9749 26.7794 70.9152 26.643 70.864 26.5065C70.8299 26.3701 70.7873 26.2336 70.7361 26.0972C70.702 26.0119 70.6593 25.9266 70.6082 25.8413C70.574 25.756 70.5485 25.6622 70.5314 25.5599C70.5143 25.3722 70.4973 25.1931 70.4802 25.0226C70.4802 24.8349 70.4717 24.6558 70.4546 24.4853L70.3011 24.4085C70.2841 24.4767 70.2756 24.5535 70.2756 24.6388C70.2756 24.707 70.2585 24.7752 70.2244 24.8435C70.2073 24.8776 70.1903 24.8605 70.1732 24.7923C70.1562 24.707 70.1391 24.6473 70.122 24.6132C70.0879 24.5279 70.0453 24.4426 69.9941 24.3573C69.9429 24.255 69.8832 24.1697 69.815 24.1015C69.6786 23.8286 69.6103 23.6921 69.6103 23.6921C69.6103 23.6921 69.6274 23.7604 69.6615 23.8968C69.7127 24.0162 69.7297 24.1186 69.7127 24.2038V27.709C69.7127 27.8967 69.7212 28.1013 69.7383 28.3231C69.7553 28.5448 69.7468 28.7495 69.7127 28.9371C69.7127 28.903 69.7041 28.9201 69.6871 28.9883C69.67 29.0395 69.67 29.0565 69.6871 29.0395C69.6871 29.0395 69.6871 29.048 69.6871 29.065C69.6871 29.065 69.6786 29.065 69.6615 29.065C69.6444 29.1333 69.6018 29.2015 69.5336 29.2697C69.4824 29.338 69.4142 29.3891 69.3289 29.4232C69.2948 29.4744 69.2607 29.5256 69.2266 29.5768C69.1924 29.645 69.1583 29.7132 69.1242 29.7814C69.0901 29.8497 69.056 29.9008 69.0219 29.935C69.0219 29.9861 69.0048 30.0288 68.9707 30.0629C68.9707 30.0629 68.9536 30.097 68.9195 30.1652C68.8513 30.2846 68.7831 30.4125 68.7148 30.549C68.6466 30.6855 68.5784 30.8219 68.5102 30.9584C68.3908 31.2313 68.2799 31.5042 68.1776 31.7771C68.0752 32.05 67.9558 32.3059 67.8194 32.5447L67.5891 32.954C67.5379 33.0222 67.4867 33.0905 67.4356 33.1587C67.3844 33.244 67.3332 33.3207 67.2821 33.389C67.265 33.4231 67.2224 33.4743 67.1541 33.5425C67.1371 33.5595 67.12 33.5681 67.103 33.5681C67.0859 33.5681 67.0774 33.5851 67.0774 33.6192C67.0433 33.9945 67.0262 34.3697 67.0262 34.745C67.0262 35.1202 67.0092 35.504 66.975 35.8963C66.958 36.1351 66.9409 36.3739 66.9239 36.6127C66.9239 36.8686 66.9068 37.1159 66.8727 37.3547C66.8727 37.3718 66.8556 37.3803 66.8215 37.3803C66.8045 37.3803 66.7874 37.3718 66.7704 37.3547C66.7533 37.2182 66.7277 36.9539 66.6936 36.5616C66.6765 36.1863 66.6595 35.7684 66.6424 35.3079C66.6254 34.8644 66.6083 34.4721 66.5913 34.1309C66.5742 33.8069 66.5657 33.6278 66.5657 33.5937C66.4975 33.5254 66.4463 33.4401 66.4122 33.3378C66.361 33.2525 66.3184 33.1672 66.2842 33.0819C66.2672 32.9967 66.2416 32.9199 66.2075 32.8517L66.054 32.34C65.9857 32.1523 65.926 31.9562 65.8749 31.7515C65.8237 31.5468 65.7555 31.3507 65.6702 31.163C65.619 31.0266 65.5508 30.8816 65.4655 30.7281L65.3888 30.6002C65.3888 30.5831 65.3802 30.5746 65.3632 30.5746C65.3632 30.5746 65.3632 30.5661 65.3632 30.549C65.2438 30.3614 65.1073 30.1993 64.9538 30.0629L64.6468 29.7559C64.6127 29.8753 64.5956 29.9946 64.5956 30.114C64.6127 30.2505 64.5956 30.3699 64.5444 30.4722C64.5274 30.5234 64.5103 30.4978 64.4933 30.3955C64.4762 30.3102 64.4592 30.242 64.4421 30.1908L64.2118 29.6535C64.1436 29.6535 64.101 29.645 64.0839 29.6279C64.0327 29.5768 64.0327 29.5512 64.0839 29.5512C64.1521 29.5682 64.0924 29.5426 63.9048 29.4744C63.8366 29.4403 63.7769 29.4062 63.7257 29.3721C63.5381 29.2356 63.4443 29.048 63.4443 28.8092V12.6904C63.4443 12.554 63.4443 12.4175 63.4443 12.2811C63.4443 12.1276 63.4869 11.9911 63.5722 11.8717C63.6234 11.7694 63.7257 11.6926 63.8792 11.6414C63.9133 11.6244 63.9474 11.6159 63.9816 11.6159C64.0327 11.5988 64.0924 11.5903 64.1607 11.5903H76.416C76.706 11.5903 76.9107 11.5903 77.0301 11.5903C77.1665 11.5732 77.3286 11.6414 77.5162 11.795C77.6527 11.9314 77.7209 12.1105 77.7209 12.3322V15.121C77.7209 15.2575 77.7209 15.4025 77.7209 15.556C77.7379 15.6925 77.7379 15.8374 77.7209 15.9909V16.2468C77.7209 16.2639 77.7124 16.2894 77.6953 16.3236C77.6953 16.3406 77.6953 16.3577 77.6953 16.3747Z" fill="#E8E8E8"/>
</svg>
