<svg width="383" height="60" viewBox="0 0 383 60" fill="none" xmlns="http://www.w3.org/2000/svg">
<path d="M30.0211 13.4484C30.1262 11.9933 30.6067 10.5903 31.4158 9.37639C32.225 8.16245 33.335 7.17905 34.6377 6.52218C35.9403 5.86531 37.391 5.55743 38.8482 5.62857C40.3053 5.69972 41.7191 6.14746 42.9516 6.92811C43.0925 7.0203 43.206 7.14875 43.2801 7.29995C43.3542 7.45114 43.3862 7.61951 43.3728 7.78737C43.3594 7.95522 43.301 8.11636 43.2038 8.25385C43.1065 8.39134 42.9741 8.50011 42.8203 8.56873C40.6779 9.53265 38.8592 11.0946 37.5828 13.0669C36.3065 15.0393 35.6266 17.3382 35.625 19.6875C35.625 19.9617 35.625 20.2359 35.6531 20.5055C35.666 20.6758 35.6322 20.8465 35.5552 20.999C35.4781 21.1515 35.3609 21.28 35.2161 21.3708C35.0714 21.4615 34.9046 21.5109 34.7337 21.5137C34.5629 21.5165 34.3946 21.4726 34.2469 21.3867C32.8656 20.5966 31.736 19.4321 30.9882 18.0275C30.2405 16.6229 29.9052 15.0354 30.0211 13.4484ZM56.25 37.643C56.2534 38.7144 55.9565 39.7653 55.3932 40.6766C54.8298 41.588 54.0224 42.3233 53.0625 42.7992L52.9594 42.8461L43.8586 46.7226C43.7687 46.7623 43.6753 46.7936 43.5797 46.8164L28.5797 50.5664C28.4311 50.6046 28.2784 50.6243 28.125 50.625H3.75C2.75544 50.625 1.80161 50.2299 1.09835 49.5266C0.395088 48.8234 0 47.8695 0 46.875V37.5C0 36.5054 0.395088 35.5516 1.09835 34.8483C1.80161 34.1451 2.75544 33.75 3.75 33.75H10.4742L15.7758 28.4461C16.471 27.7478 17.2976 27.1942 18.208 26.8173C19.1183 26.4403 20.0944 26.2475 21.0797 26.25H32.8125C33.8029 26.2499 34.7805 26.4739 35.672 26.9054C36.5635 27.3368 37.3458 27.9644 37.9602 28.7412C38.5746 29.518 39.0052 30.4238 39.2198 31.3906C39.4344 32.3575 39.4274 33.3604 39.1992 34.3242L49.0055 32.0695C49.8592 31.8434 50.7534 31.8164 51.6191 31.9905C52.4849 32.1646 53.2992 32.5352 53.9991 33.0737C54.6991 33.6122 55.266 34.3042 55.6563 35.0964C56.0465 35.8886 56.2496 36.7598 56.25 37.643ZM52.5 37.643C52.4997 37.3329 52.428 37.0271 52.2904 36.7493C52.1528 36.4715 51.9531 36.2291 51.7067 36.041C51.4603 35.8528 51.1739 35.724 50.8696 35.6644C50.5654 35.6049 50.2515 35.6163 49.9523 35.6976L49.8797 35.7164L34.1766 39.3281C34.0388 39.3589 33.8982 39.3746 33.757 39.375H26.25C25.7527 39.375 25.2758 39.1774 24.9242 38.8258C24.5725 38.4742 24.375 37.9973 24.375 37.5C24.375 37.0027 24.5725 36.5258 24.9242 36.1742C25.2758 35.8225 25.7527 35.625 26.25 35.625H32.8125C33.5584 35.625 34.2738 35.3287 34.8012 34.8012C35.3287 34.2738 35.625 33.5584 35.625 32.8125C35.625 32.0666 35.3287 31.3512 34.8012 30.8237C34.2738 30.2963 33.5584 30 32.8125 30H21.0797C20.5871 29.9984 20.099 30.0948 19.6439 30.2835C19.1889 30.4722 18.7759 30.7495 18.4289 31.0992L13.125 36.4008V46.875H27.8906L42.5227 43.2164L51.4289 39.4242C51.7531 39.2534 52.0243 38.9971 52.2131 38.6831C52.4019 38.3691 52.5011 38.0094 52.5 37.643ZM39.375 19.6875C39.375 21.3563 39.8699 22.9876 40.797 24.3751C41.7241 25.7626 43.0419 26.8441 44.5836 27.4827C46.1254 28.1213 47.8219 28.2884 49.4586 27.9629C51.0953 27.6373 52.5987 26.8337 53.7787 25.6537C54.9587 24.4737 55.7623 22.9703 56.0879 21.3336C56.4134 19.6968 56.2464 18.0003 55.6077 16.4586C54.9691 14.9168 53.8877 13.5991 52.5001 12.672C51.1126 11.7448 49.4813 11.25 47.8125 11.25C45.5747 11.25 43.4286 12.1389 41.8463 13.7213C40.264 15.3036 39.375 17.4497 39.375 19.6875Z" fill="#00875F"/>
<path d="M91.6094 35.3027C91.6094 34.8457 91.5391 34.4355 91.3984 34.0723C91.2695 33.6973 91.0234 33.3574 90.6602 33.0527C90.2969 32.7363 89.7871 32.4258 89.1309 32.1211C88.4746 31.8164 87.625 31.5 86.582 31.1719C85.4219 30.7969 84.3203 30.375 83.2773 29.9062C82.2461 29.4375 81.332 28.8926 80.5352 28.2715C79.75 27.6387 79.1289 26.9062 78.6719 26.0742C78.2266 25.2422 78.0039 24.2754 78.0039 23.1738C78.0039 22.1074 78.2383 21.1406 78.707 20.2734C79.1758 19.3945 79.832 18.6445 80.6758 18.0234C81.5195 17.3906 82.5156 16.9043 83.6641 16.5645C84.8242 16.2246 86.0957 16.0547 87.4785 16.0547C89.3652 16.0547 91.0117 16.3945 92.418 17.0742C93.8242 17.7539 94.9141 18.6855 95.6875 19.8691C96.4727 21.0527 96.8652 22.4062 96.8652 23.9297H91.627C91.627 23.1797 91.4688 22.5234 91.1523 21.9609C90.8477 21.3867 90.3789 20.9355 89.7461 20.6074C89.125 20.2793 88.3398 20.1152 87.3906 20.1152C86.4766 20.1152 85.7148 20.2559 85.1055 20.5371C84.4961 20.8066 84.0391 21.1758 83.7344 21.6445C83.4297 22.1016 83.2773 22.6172 83.2773 23.1914C83.2773 23.625 83.3828 24.0176 83.5938 24.3691C83.8164 24.7207 84.1445 25.0488 84.5781 25.3535C85.0117 25.6582 85.5449 25.9453 86.1777 26.2148C86.8105 26.4844 87.543 26.748 88.375 27.0059C89.7695 27.4277 90.9941 27.9023 92.0488 28.4297C93.1152 28.957 94.0059 29.5488 94.7207 30.2051C95.4355 30.8613 95.9746 31.6055 96.3379 32.4375C96.7012 33.2695 96.8828 34.2129 96.8828 35.2676C96.8828 36.3809 96.666 37.377 96.2324 38.2559C95.7988 39.1348 95.1719 39.8789 94.3516 40.4883C93.5312 41.0977 92.5527 41.5605 91.416 41.877C90.2793 42.1934 89.0078 42.3516 87.6016 42.3516C86.3359 42.3516 85.0879 42.1875 83.8574 41.8594C82.627 41.5195 81.5078 41.0098 80.5 40.3301C79.5039 39.6504 78.707 38.7832 78.1094 37.7285C77.5117 36.6738 77.2129 35.4258 77.2129 33.9844H82.5039C82.5039 34.7812 82.627 35.4551 82.873 36.0059C83.1191 36.5566 83.4648 37.002 83.9102 37.3418C84.3672 37.6816 84.9062 37.9277 85.5273 38.0801C86.1602 38.2324 86.8516 38.3086 87.6016 38.3086C88.5156 38.3086 89.2656 38.1797 89.8516 37.9219C90.4492 37.6641 90.8887 37.3066 91.1699 36.8496C91.4629 36.3926 91.6094 35.877 91.6094 35.3027ZM102.877 16.4062H107.342L113.916 35.1973L120.49 16.4062H124.955L115.709 42H112.123L102.877 16.4062ZM100.469 16.4062H104.916L105.725 34.7227V42H100.469V16.4062ZM122.916 16.4062H127.381V42H122.107V34.7227L122.916 16.4062ZM142.727 20.7832L135.766 42H130.158L139.668 16.4062H143.236L142.727 20.7832ZM148.51 42L141.531 20.7832L140.969 16.4062H144.572L154.135 42H148.51ZM148.193 32.4727V36.6035H134.676V32.4727H148.193ZM156.508 16.4062H166.053C168.01 16.4062 169.691 16.6992 171.098 17.2852C172.516 17.8711 173.605 18.7383 174.367 19.8867C175.129 21.0352 175.51 22.4473 175.51 24.123C175.51 25.4941 175.275 26.6719 174.807 27.6562C174.35 28.6289 173.699 29.4434 172.855 30.0996C172.023 30.7441 171.045 31.2598 169.92 31.6465L168.25 32.5254H159.953L159.918 28.4121H166.088C167.014 28.4121 167.781 28.248 168.391 27.9199C169 27.5918 169.457 27.1348 169.762 26.5488C170.078 25.9629 170.236 25.2832 170.236 24.5098C170.236 23.6895 170.084 22.9805 169.779 22.3828C169.475 21.7852 169.012 21.3281 168.391 21.0117C167.77 20.6953 166.99 20.5371 166.053 20.5371H161.781V42H156.508V16.4062ZM170.816 42L164.98 30.5918L170.553 30.5566L176.459 41.7539V42H170.816ZM189.959 16.4062V42H184.703V16.4062H189.959ZM197.834 16.4062V20.5371H176.951V16.4062H197.834ZM214.129 16.4062V42H208.855V16.4062H214.129ZM224.324 27.3398V31.4531H212.688V27.3398H224.324ZM225.555 16.4062V20.5371H212.688V16.4062H225.555ZM234.221 16.4062V42H228.965V16.4062H234.221ZM259.99 16.4062V42H254.717L244.434 24.8438V42H239.16V16.4062H244.434L254.734 33.5801V16.4062H259.99ZM275.301 20.7832L268.34 42H262.732L272.242 16.4062H275.811L275.301 20.7832ZM281.084 42L274.105 20.7832L273.543 16.4062H277.146L286.709 42H281.084ZM280.768 32.4727V36.6035H267.25V32.4727H280.768ZM309.912 16.4062V42H304.639L294.355 24.8438V42H289.082V16.4062H294.355L304.656 33.5801V16.4062H309.912ZM329.336 33.5098H334.592C334.486 35.2324 334.012 36.7617 333.168 38.0977C332.336 39.4336 331.17 40.4766 329.67 41.2266C328.182 41.9766 326.389 42.3516 324.291 42.3516C322.65 42.3516 321.18 42.0703 319.879 41.5078C318.578 40.9336 317.465 40.1133 316.539 39.0469C315.625 37.9805 314.928 36.6914 314.447 35.1797C313.967 33.668 313.727 31.9746 313.727 30.0996V28.3242C313.727 26.4492 313.973 24.7559 314.465 23.2441C314.969 21.7207 315.684 20.4258 316.609 19.3594C317.547 18.293 318.666 17.4727 319.967 16.8984C321.268 16.3242 322.721 16.0371 324.326 16.0371C326.459 16.0371 328.258 16.4238 329.723 17.1973C331.199 17.9707 332.342 19.0371 333.15 20.3965C333.971 21.7559 334.463 23.3027 334.627 25.0371H329.354C329.295 24.0059 329.09 23.1328 328.738 22.418C328.387 21.6914 327.854 21.1465 327.139 20.7832C326.436 20.4082 325.498 20.2207 324.326 20.2207C323.447 20.2207 322.68 20.3848 322.023 20.7129C321.367 21.041 320.816 21.5391 320.371 22.207C319.926 22.875 319.592 23.7188 319.369 24.7383C319.158 25.7461 319.053 26.9297 319.053 28.2891V30.0996C319.053 31.4238 319.152 32.5898 319.352 33.5977C319.551 34.5938 319.855 35.4375 320.266 36.1289C320.688 36.8086 321.227 37.3242 321.883 37.6758C322.551 38.0156 323.354 38.1855 324.291 38.1855C325.393 38.1855 326.301 38.0098 327.016 37.6582C327.73 37.3066 328.275 36.7852 328.65 36.0938C329.037 35.4023 329.266 34.541 329.336 33.5098ZM322.41 41.9297H326.225L326.031 42.9668C326.699 43.084 327.309 43.3652 327.859 43.8105C328.41 44.2559 328.686 44.9883 328.686 46.0078C328.686 46.6289 328.551 47.1914 328.281 47.6953C328.023 48.1992 327.637 48.6328 327.121 48.9961C326.605 49.3711 325.961 49.6523 325.188 49.8398C324.414 50.0391 323.523 50.1387 322.516 50.1387L322.393 47.3262C322.768 47.3262 323.107 47.2734 323.412 47.168C323.717 47.0625 323.957 46.8984 324.133 46.6758C324.309 46.4648 324.396 46.1836 324.396 45.832C324.396 45.5039 324.309 45.2461 324.133 45.0586C323.957 44.8711 323.682 44.7305 323.307 44.6367C322.943 44.543 322.463 44.4785 321.865 44.4434L322.41 41.9297ZM348.461 20.7832L341.5 42H335.893L345.402 16.4062H348.971L348.461 20.7832ZM354.244 42L347.266 20.7832L346.703 16.4062H350.307L359.869 42H354.244ZM353.928 32.4727V36.6035H340.41V32.4727H353.928ZM375.566 35.3027C375.566 34.8457 375.496 34.4355 375.355 34.0723C375.227 33.6973 374.98 33.3574 374.617 33.0527C374.254 32.7363 373.744 32.4258 373.088 32.1211C372.432 31.8164 371.582 31.5 370.539 31.1719C369.379 30.7969 368.277 30.375 367.234 29.9062C366.203 29.4375 365.289 28.8926 364.492 28.2715C363.707 27.6387 363.086 26.9062 362.629 26.0742C362.184 25.2422 361.961 24.2754 361.961 23.1738C361.961 22.1074 362.195 21.1406 362.664 20.2734C363.133 19.3945 363.789 18.6445 364.633 18.0234C365.477 17.3906 366.473 16.9043 367.621 16.5645C368.781 16.2246 370.053 16.0547 371.436 16.0547C373.322 16.0547 374.969 16.3945 376.375 17.0742C377.781 17.7539 378.871 18.6855 379.645 19.8691C380.43 21.0527 380.822 22.4062 380.822 23.9297H375.584C375.584 23.1797 375.426 22.5234 375.109 21.9609C374.805 21.3867 374.336 20.9355 373.703 20.6074C373.082 20.2793 372.297 20.1152 371.348 20.1152C370.434 20.1152 369.672 20.2559 369.062 20.5371C368.453 20.8066 367.996 21.1758 367.691 21.6445C367.387 22.1016 367.234 22.6172 367.234 23.1914C367.234 23.625 367.34 24.0176 367.551 24.3691C367.773 24.7207 368.102 25.0488 368.535 25.3535C368.969 25.6582 369.502 25.9453 370.135 26.2148C370.768 26.4844 371.5 26.748 372.332 27.0059C373.727 27.4277 374.951 27.9023 376.006 28.4297C377.072 28.957 377.963 29.5488 378.678 30.2051C379.393 30.8613 379.932 31.6055 380.295 32.4375C380.658 33.2695 380.84 34.2129 380.84 35.2676C380.84 36.3809 380.623 37.377 380.189 38.2559C379.756 39.1348 379.129 39.8789 378.309 40.4883C377.488 41.0977 376.51 41.5605 375.373 41.877C374.236 42.1934 372.965 42.3516 371.559 42.3516C370.293 42.3516 369.045 42.1875 367.814 41.8594C366.584 41.5195 365.465 41.0098 364.457 40.3301C363.461 39.6504 362.664 38.7832 362.066 37.7285C361.469 36.6738 361.17 35.4258 361.17 33.9844H366.461C366.461 34.7812 366.584 35.4551 366.83 36.0059C367.076 36.5566 367.422 37.002 367.867 37.3418C368.324 37.6816 368.863 37.9277 369.484 38.0801C370.117 38.2324 370.809 38.3086 371.559 38.3086C372.473 38.3086 373.223 38.1797 373.809 37.9219C374.406 37.6641 374.846 37.3066 375.127 36.8496C375.42 36.3926 375.566 35.877 375.566 35.3027Z" fill="#E3E3E3"/>
</svg>
